<?xml version="1.0" encoding="utf-8"?>
<!-- Generator: Adobe Illustrator 21.0.0, SVG Export Plug-In . SVG Version: 6.00 Build 0)  -->
<svg version="1.1" id="f3f1fc9a-11b4-4d92-9ae5-96c664b1a5af"
	 xmlns="http://www.w3.org/2000/svg" xmlns:xlink="http://www.w3.org/1999/xlink" x="0px" y="0px" viewBox="0 0 970 350"
	 style="enable-background:new 0 0 970 350;" xml:space="preserve">
<style type="text/css">
	.st0{opacity:0;fill:#FCFCFC;enable-background:new    ;}
	.st1{fill:#3C499E;}
	.st2{fill:#4958BF;}
	.st3{fill:#5668E1;}
	.st4{fill:#D54240;}
	.st5{fill:#FCFCFC;}
	.st6{font-family:'Poppins-Light';}
	.st7{font-size:54.1016px;}
	.st8{font-family:'Poppins-Bold';}
	.st9{font-size:45.0847px;}
	.st10{font-size:10.455px;}
	.st11{opacity:0.81;}
	.st12{font-family:'Poppins-Medium';}
	.st13{font-size:11px;}
</style>
<title>alertify banner</title>
<rect class="st0" width="970" height="350"/>
<path class="st1" d="M676.3,0l4.8,29.2c4.8,29.1,14.5,87.5-29.4,145.8S510.4,291.7,461.7,320.8L413,350H48.2V0H676.3z"/>
<path class="st2" d="M628.1,0l4.8,29.2c4.8,29.1,14.5,87.5-29.4,145.8S462.3,291.7,413.6,320.8L364.9,350H0V0H628.1z"/>
<g id="_x36_eaa4159-f669-4db2-9f19-0ac8873b0bfb">
	<g id="_x37_2bbd8f4-ec1d-4090-825d-3e9a049ca307">
		<path class="st3" d="M708.9,280.1l55.3-205.8c5.5-20.5,24.1-34.7,45.3-34.7h49.3c-18.1,0-32,17.6-36.8,35.5l-55.3,205.8
			c-5,18.5-20.7,32.1-39.7,34.4v0.3h-60.4C684.7,315.6,704,298.2,708.9,280.1z"/>
		<path class="st4" d="M892.1,239.1c20.9,0,37.9,17,37.9,37.9c0,20.9-17,37.9-37.9,37.9s-37.9-17-37.9-37.9l0,0
			C854.1,256.1,871.1,239.1,892.1,239.1z"/>
	</g>
</g>
<text transform="matrix(1 0 0 1 40 84.11)" class="st5 st6 st7">A GREAT</text>
<text transform="matrix(1 0 0 1 40 129.19)" class="st5 st8 st9">NOTIFICATION</text>
<text transform="matrix(1 0 0 1 40 174.28)" class="st5 st8 st9">SHOWCASE</text>
<text transform="matrix(1 0 0 1 43.61 204.64)" class="st5 st6 st10">Introducing Alertify, the notification manager app that perfectly complements Assignder. </text>
<text transform="matrix(1 0 0 1 43.61 217.19)" class="st5 st6 st10">Never miss a deadline or important task again with our user-friendly interface and customizable</text>
<text transform="matrix(1 0 0 1 43.61 229.73)" class="st5 st6 st10">notifications. Download Alertify now and streamline your workflow like never before!</text>
<g class="st11">
	<path class="st5" d="M45.3,311.9c-0.9,0-1.7-0.8-1.7-1.7v-4h1.7v4h14.6v-4h1.7v4c0,0.9-0.8,1.7-1.7,1.7H45.3z M52.6,307.6l-5.4-5.4
		l1.2-1.2l3.4,3.4v-10.4h1.7v10.4l3.4-3.4l1.2,1.2L52.6,307.6z"/>
</g>
<text transform="matrix(1 0 0 1 77.37 308.13)" class="st5 st12 st13">htpps://bit.ly/e74cyes74</text>
</svg>
