<svg id="Layer_1" data-name="Layer 1" xmlns="http://www.w3.org/2000/svg" viewBox="0 0 155 150"><defs><style>.cls-1{fill:#5668e1;}.cls-2{fill:#5668e0;}.cls-3{fill:#5768e0;}.cls-4{fill:#5768df;}.cls-5{fill:#5867de;}.cls-6{fill:#5967dd;}.cls-7{fill:#5a67dc;}.cls-8{fill:#5a67db;}.cls-9{fill:#5b67db;}.cls-10{fill:#5b66da;}.cls-11{fill:#5c66d9;}.cls-12{fill:#5d66d8;}.cls-13{fill:#5e66d7;}.cls-14{fill:#5e65d6;}.cls-15{fill:#5f65d6;}.cls-16{fill:#5f65d5;}.cls-17{fill:#6065d4;}.cls-18{fill:#6165d3;}.cls-19{fill:#6165d2;}.cls-20{fill:#6264d2;}.cls-21{fill:#6264d1;}.cls-22{fill:#6364d1;}.cls-23{fill:#6364d0;}.cls-24{fill:#6464cf;}.cls-25{fill:#6564ce;}.cls-26{fill:#6563cd;}.cls-27{fill:#6663cd;}.cls-28{fill:#6663cc;}.cls-29{fill:#6763cc;}.cls-30{fill:#6763cb;}.cls-31{fill:#6863ca;}.cls-32{fill:#6862ca;}.cls-33{fill:#6962c9;}.cls-34{fill:#6962c8;}.cls-35{fill:#6a62c8;}.cls-36{fill:#6a62c7;}.cls-37{fill:#6b62c6;}.cls-38{fill:#6c61c5;}.cls-39{fill:#6d61c4;}.cls-40{fill:#6d61c3;}.cls-41{fill:#6e61c3;}.cls-42{fill:#6e61c2;}.cls-43{fill:#6f61c1;}.cls-44{fill:#6f60c1;}.cls-45{fill:#7060c0;}.cls-46{fill:#7160bf;}.cls-47{fill:#7160be;}.cls-48{fill:#7260be;}.cls-49{fill:#7260bd;}.cls-50{fill:#735fbc;}.cls-51{fill:#745fbb;}.cls-52{fill:#745fba;}.cls-53{fill:#755fba;}.cls-54{fill:#755fb9;}.cls-55{fill:#765eb9;}.cls-56{fill:#765eb8;}.cls-57{fill:#775eb7;}.cls-58{fill:#785eb6;}.cls-59{fill:#785eb5;}.cls-60{fill:#795eb5;}.cls-61{fill:#795db4;}.cls-62{fill:#7a5db4;}.cls-63{fill:#7a5db3;}.cls-64{fill:#7b5db2;}.cls-65{fill:#7c5db1;}.cls-66{fill:#7c5db0;}.cls-67{fill:#7d5cb0;}.cls-68{fill:#7d5caf;}.cls-69{fill:#7e5cae;}.cls-70{fill:#7f5cad;}.cls-71{fill:#805bac;}.cls-72{fill:#805bab;}.cls-73{fill:#815bab;}.cls-74{fill:#815baa;}.cls-75{fill:#825ba9;}.cls-76{fill:#835ba8;}.cls-77{fill:#835aa8;}.cls-78{fill:#845aa7;}.cls-79{fill:#845aa6;}.cls-80{fill:#855aa6;}.cls-81{fill:#855aa5;}.cls-82{fill:#865aa4;}.cls-83{fill:#8759a3;}.cls-84{fill:#8759a2;}.cls-85{fill:#8859a2;}.cls-86{fill:#8859a1;}.cls-87{fill:#8959a1;}.cls-88{fill:#8959a0;}.cls-89{fill:#8a599f;}.cls-90{fill:#8a589f;}.cls-91{fill:#8b589e;}.cls-92{fill:#8b589d;}.cls-93{fill:#8c589d;}.cls-94{fill:#8c589c;}.cls-95{fill:#8d589c;}.cls-96{fill:#8d579b;}.cls-97{fill:#8e579a;}.cls-98{fill:#8f5799;}.cls-99{fill:#8f5798;}.cls-100{fill:#905798;}.cls-101{fill:#905797;}.cls-102{fill:#915696;}.cls-103{fill:#925695;}.cls-104{fill:#935694;}.cls-105{fill:#935693;}.cls-106{fill:#945693;}.cls-107{fill:#945592;}.cls-108{fill:#955591;}.cls-109{fill:#965590;}.cls-110{fill:#97558f;}.cls-111{fill:#97548e;}.cls-112{fill:#98548e;}.cls-113{fill:#98548d;}.cls-114{fill:#99548c;}.cls-115{fill:#9a548b;}.cls-116{fill:#9b538a;}.cls-117{fill:#9b5389;}.cls-118{fill:#9c5389;}.cls-119{fill:#9c5388;}.cls-120{fill:#9d5387;}.cls-121{fill:#9e5386;}.cls-122{fill:#9e5285;}.cls-123{fill:#9f5285;}.cls-124{fill:#9f5284;}.cls-125{fill:#a05284;}.cls-126{fill:#a05283;}.cls-127{fill:#a15282;}.cls-128{fill:#a15182;}.cls-129{fill:#a25181;}.cls-130{fill:#a25180;}.cls-131{fill:#a35180;}.cls-132{fill:#a3517f;}.cls-133{fill:#a4517f;}.cls-134{fill:#a4517e;}.cls-135{fill:#a5507d;}.cls-136{fill:#a6507c;}.cls-137{fill:#a6507b;}.cls-138{fill:#a7507b;}.cls-139{fill:#a7507a;}.cls-140{fill:#a85079;}.cls-141{fill:#a84f79;}.cls-142{fill:#a94f78;}.cls-143{fill:#aa4f77;}.cls-144{fill:#aa4f76;}.cls-145{fill:#ab4f76;}.cls-146{fill:#ab4f75;}.cls-147{fill:#ac4e74;}.cls-148{fill:#ad4e73;}.cls-149{fill:#ae4e72;}.cls-150{fill:#ae4e71;}.cls-151{fill:#af4d71;}.cls-152{fill:#af4d70;}.cls-153{fill:#b04d6f;}.cls-154{fill:#b14d6e;}.cls-155{fill:#b14d6d;}.cls-156{fill:#b24d6d;}.cls-157{fill:#b24c6c;}.cls-158{fill:#b34c6c;}.cls-159{fill:#b34c6b;}.cls-160{fill:#b44c6a;}.cls-161{fill:#b54c69;}.cls-162{fill:#b54c68;}.cls-163{fill:#b64b68;}.cls-164{fill:#b64b67;}.cls-165{fill:#b74b67;}.cls-166{fill:#b74b66;}.cls-167{fill:#b84b65;}.cls-168{fill:#b94a64;}.cls-169{fill:#b94a63;}.cls-170{fill:#ba4a63;}.cls-171{fill:#ba4a62;}.cls-172{fill:#bb4a61;}.cls-173{fill:#bc4a60;}.cls-174{fill:#bc4960;}.cls-175{fill:#bd495f;}.cls-176{fill:#bd495e;}.cls-177{fill:#be495e;}.cls-178{fill:#be495d;}.cls-179{fill:#bf495c;}.cls-180{fill:#c0485b;}.cls-181{fill:#c1485a;}.cls-182{fill:#c14859;}.cls-183{fill:#c24859;}.cls-184{fill:#c24858;}.cls-185{fill:#c34857;}.cls-186{fill:#c34757;}.cls-187{fill:#c44756;}.cls-188{fill:#c44755;}.cls-189{fill:#c54755;}.cls-190{fill:#c54754;}.cls-191{fill:#c64754;}.cls-192{fill:#c64653;}.cls-193{fill:#c74652;}.cls-194{fill:#c84651;}.cls-195{fill:#c84650;}.cls-196{fill:#c94650;}.cls-197{fill:#c9464f;}.cls-198{fill:#ca454f;}.cls-199{fill:#ca454e;}.cls-200{fill:#cb454d;}.cls-201{fill:#cc454c;}.cls-202{fill:#cc454b;}.cls-203{fill:#cd454b;}.cls-204{fill:#cd444a;}.cls-205{fill:#ce4449;}.cls-206{fill:#cf4448;}.cls-207{fill:#d04447;}.cls-208{fill:#d04346;}.cls-209{fill:#d14346;}.cls-210{fill:#d14345;}.cls-211{fill:#d24344;}.cls-212{fill:#d34343;}.cls-213{fill:#d44242;}.cls-214{fill:#d44241;}.cls-215{fill:#d54241;}</style></defs><title>Assignder</title><ellipse class="cls-1" cx="25.17" cy="124.74" rx="25.17" ry="25.2"/><ellipse class="cls-2" cx="25.58" cy="123.96" rx="25.17" ry="25.2"/><ellipse class="cls-3" cx="25.99" cy="123.17" rx="25.17" ry="25.2"/><ellipse class="cls-4" cx="26.41" cy="122.39" rx="25.17" ry="25.2"/><ellipse class="cls-5" cx="26.82" cy="121.61" rx="25.17" ry="25.2"/><ellipse class="cls-5" cx="27.23" cy="120.82" rx="25.17" ry="25.2"/><ellipse class="cls-6" cx="27.65" cy="120.04" rx="25.17" ry="25.2"/><ellipse class="cls-6" cx="28.06" cy="119.26" rx="25.17" ry="25.2"/><ellipse class="cls-7" cx="28.47" cy="118.47" rx="25.17" ry="25.2"/><ellipse class="cls-8" cx="28.89" cy="117.69" rx="25.17" ry="25.2"/><ellipse class="cls-9" cx="29.3" cy="116.9" rx="25.17" ry="25.2"/><ellipse class="cls-10" cx="29.72" cy="116.12" rx="25.17" ry="25.2"/><ellipse class="cls-11" cx="30.13" cy="115.34" rx="25.17" ry="25.2"/><ellipse class="cls-11" cx="30.54" cy="114.55" rx="25.17" ry="25.2"/><ellipse class="cls-12" cx="30.96" cy="113.77" rx="25.17" ry="25.2"/><ellipse class="cls-12" cx="31.37" cy="112.99" rx="25.17" ry="25.2"/><ellipse class="cls-13" cx="31.78" cy="112.2" rx="25.17" ry="25.2"/><ellipse class="cls-14" cx="32.2" cy="111.42" rx="25.17" ry="25.2"/><ellipse class="cls-15" cx="32.61" cy="110.63" rx="25.17" ry="25.2"/><ellipse class="cls-16" cx="33.02" cy="109.85" rx="25.17" ry="25.2"/><ellipse class="cls-17" cx="33.44" cy="109.07" rx="25.17" ry="25.2"/><ellipse class="cls-17" cx="33.85" cy="108.28" rx="25.17" ry="25.2"/><ellipse class="cls-18" cx="34.26" cy="107.5" rx="25.17" ry="25.2"/><ellipse class="cls-19" cx="34.68" cy="106.72" rx="25.17" ry="25.2"/><ellipse class="cls-20" cx="35.09" cy="105.93" rx="25.17" ry="25.2"/><ellipse class="cls-21" cx="35.5" cy="105.15" rx="25.17" ry="25.2"/><ellipse class="cls-22" cx="35.92" cy="104.36" rx="25.17" ry="25.2"/><ellipse class="cls-23" cx="36.33" cy="103.58" rx="25.17" ry="25.2"/><ellipse class="cls-24" cx="36.74" cy="102.8" rx="25.17" ry="25.2"/><ellipse class="cls-24" cx="37.16" cy="102.01" rx="25.17" ry="25.2"/><ellipse class="cls-25" cx="37.57" cy="101.23" rx="25.17" ry="25.2"/><ellipse class="cls-26" cx="37.98" cy="100.44" rx="25.17" ry="25.2"/><ellipse class="cls-27" cx="38.4" cy="99.66" rx="25.17" ry="25.2"/><ellipse class="cls-28" cx="38.81" cy="98.88" rx="25.17" ry="25.2"/><ellipse class="cls-29" cx="39.22" cy="98.09" rx="25.17" ry="25.2"/><ellipse class="cls-30" cx="39.64" cy="97.31" rx="25.17" ry="25.2"/><ellipse class="cls-31" cx="40.05" cy="96.53" rx="25.17" ry="25.2"/><ellipse class="cls-32" cx="40.46" cy="95.74" rx="25.17" ry="25.2"/><ellipse class="cls-33" cx="40.88" cy="94.96" rx="25.17" ry="25.2"/><ellipse class="cls-34" cx="41.29" cy="94.17" rx="25.17" ry="25.2"/><ellipse class="cls-35" cx="41.7" cy="93.39" rx="25.17" ry="25.2"/><ellipse class="cls-36" cx="42.12" cy="92.61" rx="25.17" ry="25.2"/><ellipse class="cls-37" cx="42.53" cy="91.82" rx="25.17" ry="25.2"/><ellipse class="cls-37" cx="42.94" cy="91.04" rx="25.17" ry="25.2"/><ellipse class="cls-38" cx="43.36" cy="90.26" rx="25.17" ry="25.2"/><ellipse class="cls-38" cx="43.77" cy="89.47" rx="25.17" ry="25.2"/><ellipse class="cls-39" cx="44.19" cy="88.69" rx="25.17" ry="25.2"/><ellipse class="cls-40" cx="44.6" cy="87.9" rx="25.17" ry="25.2"/><ellipse class="cls-41" cx="45.01" cy="87.12" rx="25.17" ry="25.2"/><ellipse class="cls-42" cx="45.43" cy="86.34" rx="25.17" ry="25.2"/><ellipse class="cls-43" cx="45.84" cy="85.55" rx="25.17" ry="25.2"/><ellipse class="cls-44" cx="46.25" cy="84.77" rx="25.17" ry="25.2"/><ellipse class="cls-45" cx="46.67" cy="83.99" rx="25.17" ry="25.2"/><ellipse class="cls-45" cx="47.08" cy="83.2" rx="25.17" ry="25.2"/><ellipse class="cls-46" cx="47.49" cy="82.42" rx="25.17" ry="25.2"/><ellipse class="cls-47" cx="47.91" cy="81.63" rx="25.17" ry="25.2"/><ellipse class="cls-48" cx="48.32" cy="80.85" rx="25.17" ry="25.2"/><ellipse class="cls-49" cx="48.73" cy="80.07" rx="25.17" ry="25.2"/><ellipse class="cls-50" cx="49.15" cy="79.28" rx="25.17" ry="25.2"/><ellipse class="cls-50" cx="49.56" cy="78.5" rx="25.17" ry="25.2"/><ellipse class="cls-51" cx="49.97" cy="77.71" rx="25.17" ry="25.2"/><ellipse class="cls-52" cx="50.39" cy="76.93" rx="25.17" ry="25.2"/><ellipse class="cls-53" cx="50.8" cy="76.15" rx="25.17" ry="25.2"/><ellipse class="cls-54" cx="51.21" cy="75.36" rx="25.17" ry="25.2"/><ellipse class="cls-55" cx="51.63" cy="74.58" rx="25.17" ry="25.2"/><ellipse class="cls-56" cx="52.04" cy="73.8" rx="25.17" ry="25.2"/><ellipse class="cls-57" cx="52.45" cy="73.01" rx="25.17" ry="25.2"/><ellipse class="cls-57" cx="52.87" cy="72.23" rx="25.17" ry="25.2"/><ellipse class="cls-58" cx="53.28" cy="71.44" rx="25.17" ry="25.2"/><ellipse class="cls-59" cx="53.69" cy="70.66" rx="25.17" ry="25.2"/><ellipse class="cls-60" cx="54.11" cy="69.88" rx="25.17" ry="25.2"/><ellipse class="cls-61" cx="54.52" cy="69.09" rx="25.17" ry="25.2"/><ellipse class="cls-62" cx="54.93" cy="68.31" rx="25.17" ry="25.2"/><ellipse class="cls-63" cx="55.35" cy="67.53" rx="25.17" ry="25.2"/><ellipse class="cls-64" cx="55.76" cy="66.74" rx="25.17" ry="25.2"/><ellipse class="cls-64" cx="56.17" cy="65.96" rx="25.17" ry="25.2"/><ellipse class="cls-65" cx="56.59" cy="65.17" rx="25.17" ry="25.2"/><ellipse class="cls-66" cx="57" cy="64.39" rx="25.17" ry="25.2"/><ellipse class="cls-67" cx="57.41" cy="63.61" rx="25.17" ry="25.2"/><ellipse class="cls-68" cx="57.83" cy="62.82" rx="25.17" ry="25.2"/><ellipse class="cls-69" cx="58.24" cy="62.04" rx="25.17" ry="25.2"/><ellipse class="cls-69" cx="58.65" cy="61.26" rx="25.17" ry="25.2"/><ellipse class="cls-70" cx="59.07" cy="60.47" rx="25.17" ry="25.2"/><ellipse class="cls-70" cx="59.48" cy="59.69" rx="25.17" ry="25.2"/><ellipse class="cls-71" cx="59.9" cy="58.9" rx="25.17" ry="25.2"/><ellipse class="cls-72" cx="60.31" cy="58.12" rx="25.17" ry="25.2"/><ellipse class="cls-73" cx="60.72" cy="57.34" rx="25.17" ry="25.2"/><ellipse class="cls-74" cx="61.14" cy="56.55" rx="25.17" ry="25.2"/><ellipse class="cls-75" cx="61.55" cy="55.77" rx="25.17" ry="25.2"/><ellipse class="cls-75" cx="61.96" cy="54.99" rx="25.17" ry="25.2"/><ellipse class="cls-76" cx="62.38" cy="54.2" rx="25.17" ry="25.2"/><ellipse class="cls-77" cx="62.79" cy="53.42" rx="25.17" ry="25.2"/><ellipse class="cls-78" cx="63.2" cy="52.63" rx="25.17" ry="25.2"/><ellipse class="cls-79" cx="63.62" cy="51.85" rx="25.17" ry="25.2"/><ellipse class="cls-80" cx="64.03" cy="51.07" rx="25.17" ry="25.2"/><ellipse class="cls-81" cx="64.44" cy="50.28" rx="25.17" ry="25.2"/><ellipse class="cls-82" cx="64.86" cy="49.5" rx="25.17" ry="25.2"/><ellipse class="cls-82" cx="65.27" cy="48.71" rx="25.17" ry="25.2"/><ellipse class="cls-83" cx="65.68" cy="47.93" rx="25.17" ry="25.2"/><ellipse class="cls-84" cx="66.1" cy="47.15" rx="25.17" ry="25.2"/><ellipse class="cls-85" cx="66.51" cy="46.36" rx="25.17" ry="25.2"/><ellipse class="cls-86" cx="66.92" cy="45.58" rx="25.17" ry="25.2"/><ellipse class="cls-87" cx="67.34" cy="44.8" rx="25.17" ry="25.2"/><ellipse class="cls-88" cx="67.75" cy="44.01" rx="25.17" ry="25.2"/><ellipse class="cls-89" cx="68.16" cy="43.23" rx="25.17" ry="25.2"/><ellipse class="cls-90" cx="68.58" cy="42.44" rx="25.17" ry="25.2"/><ellipse class="cls-91" cx="68.99" cy="41.66" rx="25.17" ry="25.2"/><ellipse class="cls-92" cx="69.4" cy="40.88" rx="25.17" ry="25.2"/><ellipse class="cls-93" cx="69.82" cy="40.09" rx="25.17" ry="25.2"/><ellipse class="cls-94" cx="70.23" cy="39.31" rx="25.17" ry="25.2"/><ellipse class="cls-95" cx="70.64" cy="38.53" rx="25.17" ry="25.2"/><ellipse class="cls-96" cx="71.06" cy="37.74" rx="25.17" ry="25.2"/><ellipse class="cls-97" cx="71.47" cy="36.96" rx="25.17" ry="25.2"/><ellipse class="cls-97" cx="71.88" cy="36.17" rx="25.17" ry="25.2"/><ellipse class="cls-98" cx="72.3" cy="35.39" rx="25.17" ry="25.2"/><ellipse class="cls-99" cx="72.71" cy="34.61" rx="25.17" ry="25.2"/><ellipse class="cls-100" cx="73.12" cy="33.82" rx="25.17" ry="25.2"/><ellipse class="cls-101" cx="73.54" cy="33.04" rx="25.17" ry="25.2"/><ellipse class="cls-102" cx="73.95" cy="32.26" rx="25.17" ry="25.2"/><ellipse class="cls-102" cx="74.37" cy="31.47" rx="25.17" ry="25.2"/><ellipse class="cls-103" cx="74.78" cy="30.69" rx="25.17" ry="25.2"/><ellipse class="cls-103" cx="75.19" cy="29.9" rx="25.17" ry="25.2"/><ellipse class="cls-104" cx="75.61" cy="29.12" rx="25.17" ry="25.2"/><ellipse class="cls-105" cx="76.02" cy="28.34" rx="25.17" ry="25.2"/><ellipse class="cls-106" cx="76.43" cy="27.55" rx="25.17" ry="25.2"/><ellipse class="cls-107" cx="76.85" cy="26.77" rx="25.17" ry="25.2"/><ellipse class="cls-108" cx="77.26" cy="25.98" rx="25.17" ry="25.2"/><ellipse class="cls-108" cx="77.67" cy="25.2" rx="25.17" ry="25.2"/><ellipse class="cls-109" cx="78.08" cy="25.86" rx="25.17" ry="25.2"/><ellipse class="cls-109" cx="78.49" cy="26.65" rx="25.17" ry="25.2"/><ellipse class="cls-110" cx="78.9" cy="27.43" rx="25.17" ry="25.2"/><ellipse class="cls-111" cx="79.32" cy="28.22" rx="25.17" ry="25.2"/><ellipse class="cls-112" cx="79.73" cy="29" rx="25.17" ry="25.2"/><ellipse class="cls-113" cx="80.14" cy="29.79" rx="25.17" ry="25.2"/><ellipse class="cls-114" cx="80.55" cy="30.57" rx="25.17" ry="25.2"/><ellipse class="cls-114" cx="80.96" cy="31.36" rx="25.17" ry="25.2"/><ellipse class="cls-115" cx="81.37" cy="32.14" rx="25.17" ry="25.2"/><ellipse class="cls-115" cx="81.78" cy="32.93" rx="25.17" ry="25.2"/><ellipse class="cls-116" cx="82.19" cy="33.71" rx="25.17" ry="25.2"/><ellipse class="cls-117" cx="82.6" cy="34.5" rx="25.17" ry="25.2"/><ellipse class="cls-118" cx="83.01" cy="35.28" rx="25.17" ry="25.2"/><ellipse class="cls-119" cx="83.42" cy="36.07" rx="25.17" ry="25.2"/><ellipse class="cls-120" cx="83.83" cy="36.85" rx="25.17" ry="25.2"/><ellipse class="cls-120" cx="84.24" cy="37.64" rx="25.17" ry="25.2"/><ellipse class="cls-121" cx="84.65" cy="38.42" rx="25.17" ry="25.2"/><ellipse class="cls-122" cx="85.07" cy="39.21" rx="25.17" ry="25.2"/><ellipse class="cls-123" cx="85.48" cy="40" rx="25.17" ry="25.2"/><ellipse class="cls-124" cx="85.89" cy="40.78" rx="25.17" ry="25.2"/><ellipse class="cls-125" cx="86.3" cy="41.57" rx="25.17" ry="25.2"/><ellipse class="cls-126" cx="86.71" cy="42.35" rx="25.17" ry="25.2"/><ellipse class="cls-127" cx="87.12" cy="43.14" rx="25.17" ry="25.2"/><ellipse class="cls-128" cx="87.53" cy="43.92" rx="25.17" ry="25.2"/><ellipse class="cls-129" cx="87.94" cy="44.71" rx="25.17" ry="25.2"/><ellipse class="cls-130" cx="88.35" cy="45.49" rx="25.17" ry="25.2"/><ellipse class="cls-131" cx="88.76" cy="46.28" rx="25.17" ry="25.2"/><ellipse class="cls-132" cx="89.17" cy="47.06" rx="25.17" ry="25.2"/><ellipse class="cls-133" cx="89.58" cy="47.85" rx="25.17" ry="25.2"/><ellipse class="cls-134" cx="89.99" cy="48.63" rx="25.17" ry="25.2"/><ellipse class="cls-135" cx="90.4" cy="49.42" rx="25.17" ry="25.2"/><ellipse class="cls-135" cx="90.82" cy="50.2" rx="25.17" ry="25.2"/><ellipse class="cls-136" cx="91.23" cy="50.99" rx="25.17" ry="25.2"/><ellipse class="cls-137" cx="91.64" cy="51.77" rx="25.17" ry="25.2"/><ellipse class="cls-138" cx="92.05" cy="52.56" rx="25.17" ry="25.2"/><ellipse class="cls-139" cx="92.46" cy="53.34" rx="25.17" ry="25.2"/><ellipse class="cls-140" cx="92.87" cy="54.13" rx="25.17" ry="25.2"/><ellipse class="cls-141" cx="93.28" cy="54.91" rx="25.17" ry="25.2"/><ellipse class="cls-142" cx="93.69" cy="55.7" rx="25.17" ry="25.2"/><ellipse class="cls-142" cx="94.1" cy="56.48" rx="25.17" ry="25.2"/><ellipse class="cls-143" cx="94.51" cy="57.27" rx="25.17" ry="25.2"/><ellipse class="cls-144" cx="94.92" cy="58.06" rx="25.17" ry="25.2"/><ellipse class="cls-145" cx="95.33" cy="58.84" rx="25.17" ry="25.2"/><ellipse class="cls-146" cx="95.74" cy="59.63" rx="25.17" ry="25.2"/><ellipse class="cls-147" cx="96.15" cy="60.41" rx="25.17" ry="25.2"/><ellipse class="cls-147" cx="96.57" cy="61.2" rx="25.17" ry="25.2"/><ellipse class="cls-148" cx="96.98" cy="61.98" rx="25.17" ry="25.2"/><ellipse class="cls-148" cx="97.39" cy="62.77" rx="25.17" ry="25.2"/><ellipse class="cls-149" cx="97.8" cy="63.55" rx="25.17" ry="25.2"/><ellipse class="cls-150" cx="98.21" cy="64.34" rx="25.17" ry="25.2"/><ellipse class="cls-151" cx="98.62" cy="65.12" rx="25.17" ry="25.2"/><ellipse class="cls-152" cx="99.03" cy="65.91" rx="25.17" ry="25.2"/><ellipse class="cls-153" cx="99.44" cy="66.69" rx="25.17" ry="25.2"/><ellipse class="cls-153" cx="99.85" cy="67.48" rx="25.17" ry="25.2"/><ellipse class="cls-154" cx="100.26" cy="68.26" rx="25.17" ry="25.2"/><ellipse class="cls-155" cx="100.67" cy="69.05" rx="25.17" ry="25.2"/><ellipse class="cls-156" cx="101.08" cy="69.83" rx="25.17" ry="25.2"/><ellipse class="cls-157" cx="101.49" cy="70.62" rx="25.17" ry="25.2"/><ellipse class="cls-158" cx="101.9" cy="71.4" rx="25.17" ry="25.2"/><ellipse class="cls-159" cx="102.32" cy="72.19" rx="25.17" ry="25.2"/><ellipse class="cls-160" cx="102.73" cy="72.97" rx="25.17" ry="25.2"/><ellipse class="cls-160" cx="103.14" cy="73.76" rx="25.17" ry="25.2"/><ellipse class="cls-161" cx="103.55" cy="74.54" rx="25.17" ry="25.2"/><ellipse class="cls-162" cx="103.96" cy="75.33" rx="25.17" ry="25.2"/><ellipse class="cls-163" cx="104.37" cy="76.12" rx="25.17" ry="25.2"/><ellipse class="cls-164" cx="104.78" cy="76.9" rx="25.17" ry="25.2"/><ellipse class="cls-165" cx="105.19" cy="77.69" rx="25.17" ry="25.2"/><ellipse class="cls-166" cx="105.6" cy="78.47" rx="25.17" ry="25.2"/><ellipse class="cls-167" cx="106.01" cy="79.26" rx="25.17" ry="25.2"/><ellipse class="cls-167" cx="106.42" cy="80.04" rx="25.17" ry="25.2"/><ellipse class="cls-168" cx="106.83" cy="80.83" rx="25.17" ry="25.2"/><ellipse class="cls-169" cx="107.24" cy="81.61" rx="25.17" ry="25.2"/><ellipse class="cls-170" cx="107.65" cy="82.4" rx="25.17" ry="25.2"/><ellipse class="cls-171" cx="108.06" cy="83.18" rx="25.17" ry="25.2"/><ellipse class="cls-172" cx="108.48" cy="83.97" rx="25.17" ry="25.2"/><ellipse class="cls-172" cx="108.89" cy="84.75" rx="25.17" ry="25.2"/><ellipse class="cls-173" cx="109.3" cy="85.54" rx="25.17" ry="25.2"/><ellipse class="cls-174" cx="109.71" cy="86.32" rx="25.17" ry="25.2"/><ellipse class="cls-175" cx="110.12" cy="87.11" rx="25.17" ry="25.2"/><ellipse class="cls-176" cx="110.53" cy="87.89" rx="25.17" ry="25.2"/><ellipse class="cls-177" cx="110.94" cy="88.68" rx="25.17" ry="25.2"/><ellipse class="cls-178" cx="111.35" cy="89.46" rx="25.17" ry="25.2"/><ellipse class="cls-179" cx="111.76" cy="90.25" rx="25.17" ry="25.2"/><ellipse class="cls-179" cx="112.17" cy="91.03" rx="25.17" ry="25.2"/><ellipse class="cls-180" cx="112.58" cy="91.82" rx="25.17" ry="25.2"/><ellipse class="cls-180" cx="112.99" cy="92.6" rx="25.17" ry="25.2"/><ellipse class="cls-181" cx="113.4" cy="93.39" rx="25.17" ry="25.2"/><ellipse class="cls-182" cx="113.81" cy="94.18" rx="25.17" ry="25.2"/><ellipse class="cls-183" cx="114.23" cy="94.96" rx="25.17" ry="25.2"/><ellipse class="cls-184" cx="114.64" cy="95.75" rx="25.17" ry="25.2"/><ellipse class="cls-185" cx="115.05" cy="96.53" rx="25.17" ry="25.2"/><ellipse class="cls-186" cx="115.46" cy="97.32" rx="25.17" ry="25.2"/><ellipse class="cls-187" cx="115.87" cy="98.1" rx="25.17" ry="25.2"/><ellipse class="cls-188" cx="116.28" cy="98.89" rx="25.17" ry="25.2"/><ellipse class="cls-189" cx="116.69" cy="99.67" rx="25.17" ry="25.2"/><ellipse class="cls-190" cx="117.1" cy="100.46" rx="25.17" ry="25.2"/><ellipse class="cls-191" cx="117.51" cy="101.24" rx="25.17" ry="25.2"/><ellipse class="cls-192" cx="117.92" cy="102.03" rx="25.17" ry="25.2"/><ellipse class="cls-193" cx="118.33" cy="102.81" rx="25.17" ry="25.2"/><ellipse class="cls-193" cx="118.74" cy="103.6" rx="25.17" ry="25.2"/><ellipse class="cls-194" cx="119.15" cy="104.38" rx="25.17" ry="25.2"/><ellipse class="cls-195" cx="119.56" cy="105.17" rx="25.17" ry="25.2"/><ellipse class="cls-196" cx="119.98" cy="105.95" rx="25.17" ry="25.2"/><ellipse class="cls-197" cx="120.39" cy="106.74" rx="25.17" ry="25.2"/><ellipse class="cls-198" cx="120.8" cy="107.52" rx="25.17" ry="25.2"/><ellipse class="cls-199" cx="121.21" cy="108.31" rx="25.17" ry="25.2"/><ellipse class="cls-200" cx="121.62" cy="109.09" rx="25.17" ry="25.2"/><ellipse class="cls-200" cx="122.03" cy="109.88" rx="25.17" ry="25.2"/><ellipse class="cls-201" cx="122.44" cy="110.66" rx="25.17" ry="25.2"/><ellipse class="cls-202" cx="122.85" cy="111.45" rx="25.17" ry="25.2"/><ellipse class="cls-203" cx="123.26" cy="112.24" rx="25.17" ry="25.2"/><ellipse class="cls-204" cx="123.67" cy="113.02" rx="25.17" ry="25.2"/><ellipse class="cls-205" cx="124.08" cy="113.81" rx="25.17" ry="25.2"/><ellipse class="cls-205" cx="124.49" cy="114.59" rx="25.17" ry="25.2"/><ellipse class="cls-206" cx="124.9" cy="115.38" rx="25.17" ry="25.2"/><ellipse class="cls-206" cx="125.31" cy="116.16" rx="25.17" ry="25.2"/><ellipse class="cls-207" cx="125.73" cy="116.95" rx="25.17" ry="25.2"/><ellipse class="cls-208" cx="126.14" cy="117.73" rx="25.17" ry="25.2"/><ellipse class="cls-209" cx="126.55" cy="118.52" rx="25.17" ry="25.2"/><ellipse class="cls-210" cx="126.96" cy="119.3" rx="25.17" ry="25.2"/><ellipse class="cls-211" cx="127.37" cy="120.09" rx="25.17" ry="25.2"/><ellipse class="cls-211" cx="127.78" cy="120.87" rx="25.17" ry="25.2"/><ellipse class="cls-212" cx="128.19" cy="121.66" rx="25.17" ry="25.2"/><ellipse class="cls-212" cx="128.6" cy="122.44" rx="25.17" ry="25.2"/><ellipse class="cls-213" cx="129.01" cy="123.23" rx="25.17" ry="25.2"/><ellipse class="cls-214" cx="129.42" cy="124.01" rx="25.17" ry="25.2"/><ellipse class="cls-215" cx="129.83" cy="124.8" rx="25.17" ry="25.2"/></svg>