<?xml version="1.0" encoding="utf-8"?>
<!-- Generator: Adobe Illustrator 21.0.0, SVG Export Plug-In . SVG Version: 6.00 Build 0)  -->
<svg version="1.1"
	 id="svg57110" xmlns:cc="http://creativecommons.org/ns#" xmlns:dc="http://purl.org/dc/elements/1.1/" xmlns:rdf="http://www.w3.org/1999/02/22-rdf-syntax-ns#" xmlns:svg="http://www.w3.org/2000/svg"
	 xmlns="http://www.w3.org/2000/svg" xmlns:xlink="http://www.w3.org/1999/xlink" x="0px" y="0px" viewBox="0 0 1024 768"
	 style="enable-background:new 0 0 1024 768;" xml:space="preserve">
<style type="text/css">
	.st0{clip-path:url(#SVGID_3_);}
	.st1{fill:#E7EAF1;stroke:#E7EAF1;stroke-miterlimit:2;}
	.st2{fill:#DEE2E9;stroke:#DEE2E9;stroke-miterlimit:2;}
	.st3{fill:#D5DBE0;stroke:#D5DBE0;stroke-miterlimit:2;}
	.st4{fill:#CCD3D8;stroke:#CCD3D8;stroke-miterlimit:2;}
	.st5{fill:#BDC6C9;stroke:#BDC6C9;stroke-miterlimit:2;}
	.st6{fill:#ACB7BA;stroke:#ACB7BA;stroke-miterlimit:2;}
	.st7{fill:#9AA8A9;stroke:#9AA8A9;stroke-miterlimit:2;}
</style>
<g>
	<defs>
		<polygon id="SVGID_1_" points="1,1 2,1 1,2 		"/>
	</defs>
	<defs>
		<polygon id="SVGID_2_" points="-1,-1 -2,-1 -1,-2 		"/>
	</defs>
	<clipPath id="SVGID_3_">
		<use xlink:href="#SVGID_1_"  style="overflow:visible;"/>
	</clipPath>
	<clipPath id="SVGID_4_" class="st0">
		<use xlink:href="#SVGID_2_"  style="overflow:visible;"/>
	</clipPath>
</g>
<g id="slogan" transform="translate(0 0)">
</g>
<g id="title" transform="translate(0 0)">
	<path id="path57119" class="st1" d="M280.1,501.7c5.7,3.2,12,4.7,19.2,4.7c5.1,0,9.9-0.8,14.3-2.6c4.4-1.6,8.2-4.2,11.3-7.5
		l-3.3-3.4c-5.9,5.8-13.3,8.6-22.1,8.6c-6.1,0-11.5-1.3-16.5-4.1c-4.9-2.7-8.9-6.5-11.6-11.3c-2.9-4.8-4.2-10.3-4.2-16.3
		s1.3-11.3,4.2-16.2c2.8-4.8,6.7-8.6,11.6-11.4c4.9-2.7,10.4-4.1,16.5-4.1c9,0,16.4,2.9,22.1,8.5l3.3-3.4c-3.1-3.3-6.9-5.8-11.2-7.4
		c-4.4-1.6-9.3-2.6-14.4-2.6c-7.1,0-13.5,1.6-19.2,4.7c-5.7,3.2-10.1,7.5-13.4,13.1c-3.3,5.6-4.8,11.8-4.8,18.7
		c0,7,1.5,13.2,4.8,18.7C270,494.2,274.4,498.6,280.1,501.7L280.1,501.7z"/>
	<path id="path57121" class="st2" d="M352.9,502.9c4.1,2.4,8.6,3.5,13.8,3.5c5,0,9.6-1.1,13.7-3.5c4.1-2.3,7.3-5.6,9.7-9.7
		c2.3-4.1,3.5-8.9,3.5-14.1c0-5.1-1.2-9.9-3.5-14c-2.4-4.1-5.6-7.4-9.7-9.8c-4.1-2.3-8.6-3.5-13.7-3.5c-5.1,0-9.7,1.2-13.8,3.5
		c-4.1,2.4-7.3,5.7-9.6,9.8c-2.4,4.1-3.5,8.9-3.5,14c0,5.3,1.1,10,3.5,14.1C345.6,497.3,348.8,500.6,352.9,502.9z M377.7,498.8
		c-3.3,2-6.9,2.9-11,2.9s-7.8-0.9-11.1-2.9c-3.3-1.9-5.9-4.5-7.7-8c-1.9-3.4-2.8-7.3-2.8-11.7c0-4.3,0.9-8.2,2.8-11.7
		c1.9-3.4,4.4-6.1,7.7-8c3.3-1.9,7-2.9,11.1-2.9s7.7,1,11,2.9c3.3,2,5.9,4.6,7.7,8c1.9,3.5,2.9,7.4,2.9,11.7c0,4.4-1,8.3-2.9,11.7
		C383.6,494.3,381,497,377.7,498.8z"/>
	<path id="path57123" class="st3" d="M464.3,429.5h-5.1v35.1c-2.3-4-5.3-7.2-9.1-9.5c-3.8-2.3-8.1-3.4-12.9-3.4
		c-5,0-9.6,1.2-13.6,3.5c-4.1,2.3-7.3,5.6-9.6,9.7c-2.3,4.1-3.4,8.9-3.4,14.1c0,5.4,1.1,10,3.4,14.1c2.3,4.1,5.5,7.4,9.6,9.7
		c4,2.4,8.5,3.5,13.6,3.5c4.8,0,9.2-1.1,13.1-3.4c3.8-2.3,6.8-5.5,9-9.7v12.7h5L464.3,429.5z M448.6,498.8c-3.3,2-6.9,2.9-11,2.9
		c-4.1,0-7.8-0.9-11.1-2.9c-3.3-1.9-5.9-4.5-7.7-8c-1.9-3.4-2.8-7.3-2.8-11.7c0-4.3,0.9-8.2,2.8-11.7c1.9-3.4,4.4-6.1,7.7-8
		c3.3-1.9,7-2.9,11.1-2.9c4.1,0,7.7,1,11,2.9c3.3,2,5.9,4.6,7.7,8c1.9,3.5,2.9,7.4,2.9,11.7c0,4.4-1,8.3-2.9,11.7
		C454.5,494.3,451.9,497,448.6,498.8z"/>
	<path id="path57125" class="st4" d="M525,499.9c-3,1.2-6.3,1.9-9.7,1.9c-5.6,0-10.2-1.4-14.1-4.3c-3.9-2.9-6.6-6.8-7.8-11.7
		l45.4-8.9c-0.3-4.7-1.4-9-3.7-12.8c-2.3-3.8-5.3-6.8-9-9c-3.7-2.2-7.9-3.3-12.6-3.3c-5,0-9.6,1.2-13.5,3.5c-4,2.4-7.1,5.6-9.4,9.7
		c-2.3,4.1-3.3,8.9-3.3,14.1c0,5.4,1.1,10,3.5,14.1c2.4,4.1,5.7,7.4,9.9,9.7c4.2,2.4,9,3.5,14.4,3.5c4.1,0,7.9-0.7,11.5-2.2
		c3.4-1.4,6.4-3.6,8.8-6.6l-3-3.4C530.5,496.8,528,498.6,525,499.9L525,499.9z M502.7,459.2c3.2-1.9,6.8-2.9,10.9-2.9
		c3.5,0,6.8,0.8,9.7,2.4s5.1,3.7,7,6.3c1.8,2.7,2.9,5.7,3.4,8.9l-41,8c-0.2-1.3-0.2-2.4-0.2-3.2c0-4.2,0.8-8.1,2.7-11.5
		C496.9,463.7,499.4,461.1,502.7,459.2L502.7,459.2z"/>
	<path id="path57127" class="st5" d="M622.3,433.9h-5.3v62.6l-49-62.6h-4.4v72.1h5.3v-62.6l49.1,62.6h4.3V433.9z"/>
	<path id="path57129" class="st6" d="M660.2,502.9c4.1,2.4,8.6,3.5,13.8,3.5c5,0,9.6-1.1,13.7-3.5c4.1-2.3,7.3-5.6,9.7-9.7
		c2.3-4.1,3.5-8.9,3.5-14.1c0-5.1-1.2-9.9-3.5-14c-2.4-4.1-5.6-7.4-9.7-9.8c-4.1-2.3-8.6-3.5-13.7-3.5c-5.1,0-9.7,1.2-13.8,3.5
		c-4.1,2.4-7.3,5.7-9.6,9.8c-2.4,4.1-3.5,8.9-3.5,14c0,5.3,1.1,10,3.5,14.1C652.9,497.3,656.1,500.6,660.2,502.9z M685,498.8
		c-3.3,2-6.9,2.9-11,2.9c-4.1,0-7.8-0.9-11.1-2.9c-3.3-1.9-5.9-4.5-7.7-8c-1.9-3.4-2.8-7.3-2.8-11.7c0-4.3,0.9-8.2,2.8-11.7
		c1.9-3.4,4.4-6.1,7.7-8c3.3-1.9,7-2.9,11.1-2.9c4.1,0,7.7,1,11,2.9c3.3,2,5.9,4.6,7.7,8c1.9,3.5,2.9,7.4,2.9,11.7
		c0,4.4-1,8.3-2.9,11.7C690.9,494.3,688.3,497,685,498.8z"/>
	<path id="path57131" class="st7" d="M756,505.9h6.1l-21.6-27.7l20.2-26h-5.8l-17.3,22.3l-17.3-22.3h-5.9l20.2,26l-21.3,27.7h5.9
		l18.4-24L756,505.9z"/>
</g>
<image style="overflow:visible;enable-background:new    ;" width="200" height="200" id="icon" xlink:href="C3956A18.png"  transform="matrix(0.75 0 0 0.75 437 261.5444)">
</image>
</svg>
