<svg xmlns="http://www.w3.org/2000/svg" viewBox="0 0 154.61 162"><title>1</title><g id="Layer_2" data-name="Layer 2"><g id="Layer_1-2" data-name="Layer 1"><path d="M102.8,1.5c-6.47,4.08-11.06,11.72-13,19L57.3,141.24a25.91,25.91,0,0,1-22,19.07,1.5,1.5,0,0,0-.57.19H10.79c7.17-3.88,13.4-11.09,15.51-18.94L58.77,20.78A26.08,26.08,0,0,1,83.92,1.5H102.8M83.92,0a27.54,27.54,0,0,0-26.6,20.39L24.85,141.17C22,151.79,10.63,162,0,162H35.44v-.2a27.53,27.53,0,0,0,23.31-20.17L91.22,20.86C94.08,10.33,102.2,0,112.83,0H83.92Zm28.91,0h0Z"/><path d="M132.35,118.63a20.76,20.76,0,1,1-20.76,20.76,20.78,20.78,0,0,1,20.76-20.76m0-1.5a22.26,22.26,0,1,0,22.26,22.26,22.26,22.26,0,0,0-22.26-22.26Z"/></g></g></svg>